<svg width="115" height="34" viewBox="0 0 115 34" fill="none" xmlns="http://www.w3.org/2000/svg">
<path d="M11.1832 10C11.1832 10 3.68472 17.7851 4.0103 24.8151C4.43431 33.9512 14.0604 34 14.0604 34C14.0604 34 17.9825 32.2894 16.766 27.4863C15.2718 21.5967 10.0626 17.8596 11.1857 10" fill="#5ABEEC"/>
<path d="M16.0416 9.41951C14.4869 4.41256 16.6498 2 16.6498 2C16.6498 2 9.72058 7.98273 11.2097 14.4444C12.6989 20.906 16.9854 23.4748 17.2554 28.5612C17.4232 31.7139 15.0584 33.1071 13.6243 33.604C13.0056 33.8191 12.5573 33.8832 12.5573 33.8832C12.5573 33.8832 13.5195 34.1956 15.2262 33.7986C23.3641 31.6576 17.3393 17.8788 17.3393 17.8788C21.8749 26.438 20.7555 30.4026 18.8311 32.2389C19.2401 31.9854 19.6674 31.6985 20.1105 31.3682C27.9075 25.5852 17.6303 14.5443 16.039 9.41951" fill="#6C9740"/>
<path d="M9.07964 33C9.07964 33 -5.98762 27.4702 10.3502 9.25342C10.3502 9.25342 11.033 6.23282 6.13292 10.251C6.13292 10.251 15.7097 1.96267 15.987 0.577078C16.3052 -1.0151 10.7378 0.589674 5.91731 6.61323C5.91731 6.61323 1.13789 12.856 0.447411 18.0028C0.447411 18.0028 -2.96903 31.4305 9.07964 33Z" fill="#31441F"/>
<path d="M38.4083 15.6781C36.7726 15.1312 34.0863 14.4943 34.0863 12.1017C34.0863 10.6282 35.1718 9.4045 36.4863 9.4045C37.8008 9.4045 38.8664 10.6282 38.8664 12.0868L43.5668 10.9679C43.0813 7.02941 40.0813 4 36.4589 4C32.488 4 29.2664 7.60882 29.2664 12.0893C29.2664 15.7081 31.8033 18.3654 34.6739 19.4692C36.3021 20.1061 39.1876 20.4433 39.1876 22.8683C39.1876 24.3418 37.7436 25.568 36.4365 25.568L36.4564 25.593C35.127 25.593 33.7004 24.3842 33.7004 22.9032L29 24.0321C29.5353 27.9881 32.829 31 36.4714 31C40.4373 31 44 27.3837 44 22.9032C44 19.2045 41.3784 16.6521 38.4058 15.6856" fill="#5ABEEC"/>
<path d="M42 31H47.2343L48.8653 26.8308H57.1194L58.7504 31H64L52.9936 3L42 31ZM55.2056 21.9625H50.7791L53.0064 16.1577L55.2056 21.9625Z" fill="#5ABEEC"/>
<path d="M65 31H79V25.6258H69.6658V20.2035H76.6659V14.8142H69.6658V9.38938H79V4H65V31Z" fill="#5ABEEC"/>
<path d="M89.0365 15.6781C87.2921 15.1312 84.4271 14.4943 84.4271 12.1017C84.4271 10.6282 85.5848 9.4045 86.9867 9.4045C88.3886 9.4045 89.5224 10.6282 89.5224 12.0868L94.5353 10.9679C94.0176 7.02941 90.8181 4 86.9549 4C82.7199 4 79.2841 7.60882 79.2841 12.0893C79.2841 15.7081 81.9897 18.3654 85.0511 19.4692C86.7876 20.1061 89.8649 20.4433 89.8649 22.8683C89.8649 24.3418 88.3249 25.568 86.931 25.568L86.9549 25.593C85.537 25.593 84.0129 24.3842 84.0129 22.9032L79 24.0321C79.5709 27.9881 83.0836 31 86.9681 31C91.1978 31 95 27.3837 95 22.9032C95 19.2045 92.2041 16.6521 89.0339 15.6856" fill="#5ABEEC"/>
<path d="M103.991 3L93 31H98.2343L99.8627 26.8308H108.119L109.75 31H115L103.994 3H103.991ZM101.779 21.9625L104.006 16.1577L106.206 21.9625H101.779Z" fill="#5ABEEC"/>
</svg>
